<mxfile host="app.diagrams.net" modified="2023-11-16T05:53:21.181Z" agent="Mozilla/5.0 (Macintosh; Intel Mac OS X 10_15_7) AppleWebKit/537.36 (KHTML, like Gecko) Chrome/119.0.0.0 Safari/537.36" etag="VeVAqnTuH57IaMMg-4cU" version="22.1.2" type="github">
  <diagram name="第 1 页" id="XjLM-GdVwb92LFpAycA9">
    <mxGraphModel dx="1434" dy="797" grid="1" gridSize="10" guides="1" tooltips="1" connect="1" arrows="1" fold="1" page="1" pageScale="1" pageWidth="827" pageHeight="1169" math="0" shadow="0">
      <root>
        <mxCell id="0" />
        <mxCell id="1" parent="0" />
        <mxCell id="z5WD8DOePez32K_2gX0e-3" value="" style="edgeStyle=orthogonalEdgeStyle;rounded=0;orthogonalLoop=1;jettySize=auto;html=1;" edge="1" parent="1" source="z5WD8DOePez32K_2gX0e-1" target="z5WD8DOePez32K_2gX0e-2">
          <mxGeometry relative="1" as="geometry" />
        </mxCell>
        <mxCell id="z5WD8DOePez32K_2gX0e-1" value="A" style="rounded=0;whiteSpace=wrap;html=1;" vertex="1" parent="1">
          <mxGeometry x="230" y="170" width="120" height="60" as="geometry" />
        </mxCell>
        <mxCell id="z5WD8DOePez32K_2gX0e-2" value="B" style="rounded=0;whiteSpace=wrap;html=1;" vertex="1" parent="1">
          <mxGeometry x="414" y="170" width="120" height="60" as="geometry" />
        </mxCell>
      </root>
    </mxGraphModel>
  </diagram>
</mxfile>
